<?xml version="1.0" encoding="UTF-8" standalone="no"?>
<!-- Created with Inkscape (http://www.inkscape.org/) -->

<svg
   width="196.0015mm"
   height="197.05542mm"
   viewBox="0 0 196.00149 197.05542"
   version="1.1"
   id="svg1"
   xml:space="preserve"
   inkscape:version="1.1.2 (0a00cf5339, 2022-02-04)"
   sodipodi:docname="zazu_with_border.svg"
   inkscape:export-filename="zazu.png"
   inkscape:export-xdpi="96"
   inkscape:export-ydpi="96"
   xmlns:inkscape="http://www.inkscape.org/namespaces/inkscape"
   xmlns:sodipodi="http://sodipodi.sourceforge.net/DTD/sodipodi-0.dtd"
   xmlns="http://www.w3.org/2000/svg"
   xmlns:svg="http://www.w3.org/2000/svg"><sodipodi:namedview
     id="namedview1"
     pagecolor="#ffffff"
     bordercolor="#000000"
     borderopacity="0.25"
     inkscape:showpageshadow="2"
     inkscape:pageopacity="0.0"
     inkscape:pagecheckerboard="0"
     inkscape:deskcolor="#d1d1d1"
     inkscape:document-units="mm"
     inkscape:zoom="0.54208404"
     inkscape:cx="-243.50468"
     inkscape:cy="414.14243"
     inkscape:window-width="1850"
     inkscape:window-height="1016"
     inkscape:window-x="70"
     inkscape:window-y="27"
     inkscape:window-maximized="1"
     inkscape:current-layer="g3"
     inkscape:pageshadow="2"
     showgrid="false" /><defs
     id="defs1" /><g
     inkscape:label="Layer 1"
     inkscape:groupmode="layer"
     id="layer1"
     transform="translate(-6.9376265,-49.972291)"><g
       transform="matrix(0.03527778,0,0,-0.03527778,-75.773979,330.84295)"
       fill="#000000"
       stroke="none"
       id="g3"><g
         transform="matrix(9.9683212,0,0,-10.02194,-1002.9788,9192.5801)"
         id="g1"><path
           d="M 350,240.525 C 350,183.35 396.35,137 453.525,137 h 321.95 C 832.65,137 879,183.35 879,240.525 v 321.949 c 0,57.176 -46.35,103.525 -103.525,103.525 H 453.525 C 396.35,665.999 350,619.65 350,562.474 Z"
           stroke="#3b7d23"
           stroke-width="20"
           stroke-miterlimit="8"
           fill="none"
           fill-rule="evenodd"
           id="path1-7"
           style="stroke:#000000;stroke-width:28.3604;stroke-dasharray:none;stroke-opacity:1" /></g><path
         id="path35"
         d="m 5608.3783,7133.8478 c -250.9517,-1.7529 -501.6892,-8.0066 -753.1864,-11.9315 -500.0221,-6.4939 -476.8483,-3.7114 -679.0831,-69.5771 -270.8842,-89.0579 -458.2786,-236.5683 -634.5379,-500.0312 -68.6494,-102.9734 -148.4386,-282.9454 -182.7624,-414.6771 -45.4571,-172.5498 -52.8703,-264.3989 -47.3041,-601.1491 2.7831,-213.3681 8.3418,-320.9773 15.7634,-342.3141 l 12.0674,-31.5407 17.6253,22.2592 c 9.277,12.0596 36.1792,59.3813 59.3716,105.7655 88.1292,175.3331 276.4466,389.6302 474.9725,539.9158 64.0091,49.1671 285.7384,159.5579 384.0732,192.9542 38.9623,12.9878 114.1074,29.6908 166.9851,37.1124 163.2725,22.2647 510.2286,32.4706 763.4876,20.411 l 229.1425,-10.2054 -69.5771,-64.9433 c -38.0346,-36.1799 -160.4913,-161.4161 -271.8138,-279.2326 -111.3188,-116.8881 -294.0858,-307.0635 -406.3323,-422.0967 -74.442,-75.9516 -158.5301,-162.5354 -240.4762,-246.7406 -190.6822,-190.5088 -355.1078,-354.1757 -404.8109,-401.4819 -40.8826,-39.3092 -98.9452,-92.0105 -143.8698,-132.0878 -52.2032,-51.5237 -96.4988,-95.8024 -136.0288,-135.9879 -33.7719,-34.3321 -64.3422,-65.9071 -90.3418,-93.9292 -15.5853,-16.8388 -125.2388,-128.7282 -164.9878,-170.1785 -30.6213,-31.9329 -85.9686,-88.5137 -127.1007,-131.1094 -22.5727,-23.377 -45.8328,-47.3062 -69.7534,-71.9553 v -582.7492 -122.7656 l 635.8293,-3.9273 104.5967,-0.6523 c 47.4349,-1.7662 94.7297,-1.981 142.1025,-3.0984 64.4237,-1.5196 128.906,-3.6851 193.2398,-4.199 83.7337,-0.6689 167.4118,-0.5843 251.0621,0 250.9518,1.7528 501.6892,8.0064 753.1864,11.9313 500.0222,6.4939 476.8483,3.7115 679.0831,69.5772 270.8842,89.0579 458.2786,236.5683 634.5379,500.0313 68.6494,102.9733 148.4386,282.9453 182.7624,414.6769 45.4571,172.5498 52.8703,264.3991 47.3041,601.1492 -2.783,213.3681 -8.3418,320.9772 -15.7634,342.314 l -12.0674,31.5407 -17.6253,-22.2592 c -9.2769,-12.0596 -36.1792,-59.3812 -59.3716,-105.7654 -88.1291,-175.3332 -276.4466,-389.6302 -474.9724,-539.9158 -64.0092,-49.1672 -285.7385,-159.5579 -384.0742,-192.9543 -38.9613,-12.9877 -114.1065,-29.6908 -166.9842,-37.1123 -163.2725,-22.2646 -510.2286,-32.4707 -763.4875,-20.4111 l -229.1426,10.2056 69.5772,64.9432 c 38.0345,36.1798 160.4912,161.4161 271.8128,279.2325 111.3197,116.8881 294.0868,307.0636 406.3332,422.0968 74.3149,75.8224 158.2648,162.2614 240.069,246.3193 190.8603,190.6888 355.4807,354.5645 405.2182,401.9031 40.8825,39.3092 98.9451,92.0106 143.8697,132.0878 52.2033,51.5237 96.4988,95.8025 136.0289,135.988 33.7718,34.3321 64.3421,65.9071 90.3417,93.9291 15.5853,16.8389 125.2388,128.7282 164.9878,170.1786 30.6214,31.9328 85.9686,88.5137 127.1007,131.1094 22.5727,23.377 45.8328,47.3062 69.7534,71.9553 v 582.7493 122.7655 l -635.8292,3.9273 -104.5967,0.6523 c -47.4349,1.7663 -94.7298,1.9809 -142.1025,3.0983 -64.4238,1.5196 -128.906,3.6852 -193.2399,4.1992 -83.7337,0.6688 -167.4118,0.5842 -251.0621,0 z"
         style="stroke-width:0.927695" /></g></g></svg>
